<?xml version="1.0" encoding="utf-8"?>
<!-- Generator: Adobe Illustrator 24.0.2, SVG Export Plug-In . SVG Version: 6.00 Build 0)  -->
<svg version="1.1" id="Layer_1" xmlns="http://www.w3.org/2000/svg" xmlns:xlink="http://www.w3.org/1999/xlink" x="0px" y="0px"
	 viewBox="0 0 1920 1080" style="enable-background:new 0 0 1920 1080;" xml:space="preserve">
<style type="text/css">
	.st0{fill:#00B7F3;}
</style>
<g>
	<g>
		<polygon class="st0" points="436.8,526.36 436.88,526.36 441.92,511.94 		"/>
		<polygon class="st0" points="534.23,576.8 534.01,576.8 540.98,596.67 		"/>
		<polygon class="st0" points="226.47,455.74 226.47,455.66 107.43,455.66 107.43,337.54 39.75,337.54 39.75,645.35 107.43,645.35 
			107.43,512.57 232.02,512.57 232.02,645.35 299.7,645.35 299.7,455.74 232.14,455.74 		"/>
		<polygon class="st0" points="299.7,387.6 299.7,337.54 232.02,337.54 232.02,387.6 232.14,387.6 		"/>
		<path class="st0" d="M443.26,337.54l-116.4,307.81h68.12l24.14-68.55h0.16l17.61-50.44h-0.09l5.12-14.43l1.97-5.65l0.03,0
			l32.96-92.87h0.86l38.8,112.95h-0.22l17.68,50.44h0.22l6.75,19.87l2.23,6.36l-0.07,0l14.37,42.32h70.27l-115.1-307.81H443.26z
			 M422.35,560.78h-45.42v-45.42h45.42V560.78z"/>
		<path class="st0" d="M654.51,390.44v-52.91h165.98c13.8,0,26.22,2.23,37.29,6.68c11.06,4.46,20.55,10.56,28.45,18.32
			c7.9,7.76,13.94,16.75,18.11,26.94c4.16,10.21,6.25,21.2,6.25,32.98c0,18.11-3.81,33.77-11.43,46.99
			c-7.62,13.22-20.05,23.28-37.29,30.18v0.86c8.33,2.3,15.23,5.82,20.69,10.56c5.46,4.74,9.92,10.35,13.37,16.81
			c3.45,6.47,5.96,13.58,7.54,21.34c1.58,7.76,2.65,15.52,3.23,23.28c0.28,4.89,0.57,10.64,0.86,17.24
			c0.28,6.61,0.79,13.37,1.51,20.26c0.71,6.9,1.87,13.44,3.45,19.61c1.57,6.19,3.95,11.43,7.11,15.74h-67.68
			c-3.74-9.77-6.04-21.41-6.9-34.92c-0.86-13.5-2.16-26.44-3.88-38.8c-2.3-16.09-7.19-27.87-14.66-35.35
			c-7.48-7.47-19.69-11.21-36.64-11.21h-67.69v120.28h-67.68l-1.19-168.55l68.87-0.01h74.15c15.52,0,27.16-3.45,34.92-10.35
			s11.64-18.11,11.64-33.63c0-14.94-3.88-25.79-11.64-32.55c-7.76-6.75-19.4-10.13-34.92-10.13h-74.15L654.51,390.44z"/>
		<polygon class="st0" points="1162.35,544.04 1161.48,544.04 1033.01,337.54 1032.72,337.54 1032.72,404.64 965.76,404.64 
			965.76,645.35 1029.13,645.35 1029.13,439.28 1029.99,439.28 1158.03,645.35 1225.72,645.35 1225.72,337.54 1162.35,337.54 		"/>
		<path class="st0" d="M1534.39,377.2c-12.93-14.65-28.74-26.15-47.42-34.49c-18.69-8.33-39.95-12.5-63.8-12.5
			c-23.57,0-44.77,4.17-63.59,12.5c-18.83,8.34-34.7,19.83-47.64,34.49c-12.93,14.66-22.85,31.84-29.75,51.52
			c-6.9,19.69-10.35,41.03-10.35,64.02c0,22.42,3.45,43.32,10.35,62.73s16.81,36.29,29.75,50.65
			c12.93,14.37,28.81,25.65,47.64,33.84c18.82,8.19,40.02,12.29,63.59,12.29c23.85,0,45.12-4.09,63.8-12.29
			c18.68-8.19,34.49-19.47,47.42-33.84c12.93-14.37,22.85-31.25,29.75-50.65s10.35-40.31,10.35-62.73
			c0-22.99-3.45-44.33-10.35-64.02C1557.24,409.04,1547.33,391.86,1534.39,377.2z M1308.1,427.35v-45.42h45.42v45.42H1308.1z
			 M1502.28,530.46c-3.02,12.22-7.83,23.21-14.44,32.98c-6.61,9.77-15.24,17.61-25.87,23.5c-10.64,5.89-23.57,8.84-38.8,8.84
			c-15.24,0-28.17-2.94-38.8-8.84c-10.64-5.89-19.26-13.72-25.87-23.5c-6.61-9.77-11.43-20.76-14.44-32.98
			c-3.02-12.21-4.52-24.79-4.52-37.72c0-13.5,1.51-26.58,4.52-39.23c3.02-12.64,7.83-23.93,14.44-33.84
			c6.61-9.92,15.23-17.82,25.87-23.71c10.63-5.89,23.56-8.84,38.8-8.84c15.23,0,28.16,2.95,38.8,8.84
			c10.63,5.89,19.25,13.8,25.87,23.71c6.61,9.91,11.43,21.2,14.44,33.84c3.02,12.65,4.53,25.73,4.53,39.23
			C1506.8,505.67,1505.29,518.25,1502.28,530.46z"/>
		<rect x="1620.61" y="580.65" class="st0" width="63.37" height="64.7"/>
		<polygon class="st0" points="1817.2,337.54 1817.2,544.04 1816.34,544.04 1687.87,337.54 1620.61,337.54 1620.61,518.2 
			1683.99,518.2 1683.99,439.28 1684.85,439.28 1812.89,645.35 1880.57,645.35 1880.57,337.54 		"/>
	</g>
</g>
</svg>
